<svg width="55" height="24" viewBox="0 0 55 24" fill="none" xmlns="http://www.w3.org/2000/svg">
<path d="M54.2563 5.46539H0V5.73597H54.2563V5.46539Z" fill="#030303"/>
<path d="M54.2563 22.9783H0V23.2489H54.2563V22.9783Z" fill="#030303"/>
<path d="M54.2563 18.6055H0V18.876H54.2563V18.6055Z" fill="#030303"/>
<path d="M54.2563 14.2209H0V14.4915H54.2563V14.2209Z" fill="#030303"/>
<path d="M54.2563 9.8382H0V10.1088H54.2563V9.8382Z" fill="#030303"/>
<path d="M18.1634 5.59384L4.02734 18.0039L4.90563 19.0043L19.0417 6.59427L18.1634 5.59384Z" fill="#030303"/>
<path d="M29.6345 5.58932L10.96 21.9838L11.8382 22.9842L30.5128 6.58973L29.6345 5.58932Z" fill="#030303"/>
<path d="M41.0471 5.59653L22.3726 21.991L23.2508 22.9914L41.9254 6.59696L41.0471 5.59653Z" fill="#030303"/>
<path d="M23.2482 22.9885H19.8281L29.6014 5.59576H32.9566L23.2482 22.9885Z" fill="#030303"/>
<path d="M11.819 22.9885H8.39893L18.1722 5.59576H21.5274L11.819 22.9885Z" fill="#030303"/>
<path d="M40.2841 12.9988L44.4077 5.59576H41.0526L37.0264 12.7607L40.2841 12.9988Z" fill="#030303"/>
<path d="M43.4224 19.8815C42.5457 20.033 41.669 19.8382 40.9764 19.2862C39.7966 18.3446 38.3788 16.3856 40.2728 12.9872C43.1518 7.83536 37.7619 11.4286 37.7619 11.4286C37.7619 11.4286 31.7659 20.1954 42.1236 20.1954C51.7129 20.1954 50.176 12.7382 50.176 12.7382H46.5394C46.5394 12.7382 48.4659 18.9832 43.4224 19.8707V19.8815Z" fill="#030303"/>
<path d="M4.02646 17.9994V22.9781H6.7647C6.7647 22.9781 4.22127 22.6101 4.22127 20.7377C4.22127 19.4497 5.15206 18.7679 5.15206 18.7679L4.01562 17.9886L4.02646 17.9994Z" fill="#030303"/>
<path d="M32.1555 3.2253C33.2912 3.2253 34.2119 2.50327 34.2119 1.61263C34.2119 0.721995 33.2912 0 32.1555 0C31.0198 0 30.0991 0.721995 30.0991 1.61263C30.0991 2.50327 31.0198 3.2253 32.1555 3.2253Z" fill="#030303"/>
</svg>
